<?xml version="1.0" encoding="UTF-8" standalone="no"?>
<svg width="57px" height="57px" viewBox="0 0 57 57" version="1.1" xmlns="http://www.w3.org/2000/svg" xmlns:xlink="http://www.w3.org/1999/xlink">
    <!-- Generator: Sketch 3.8.3 (29802) - http://www.bohemiancoding.com/sketch -->
    <title>Group 4pomnot-icon</title>
    <desc>Created with Sketch.</desc>
    <defs></defs>
    <g id="splashpage" stroke="none" stroke-width="1" fill="none" fill-rule="evenodd">
        <g id="Desktop" transform="translate(-108.000000, -105.000000)">
            <g id="Group-4" transform="translate(108.000000, 105.000000)">
                <rect id="Rectangle-460" fill="#FFFFFF" x="0" y="0.631578947" width="57" height="56.25" rx="19"></rect>
                <g id="Group-8" transform="translate(8.000000, 4.000000)">
                    <g id="Group" transform="translate(0.000000, 8.636752)">
                        <ellipse id="Oval-54" fill="#F02500" cx="20.9216095" cy="19.2412986" rx="20.9216095" ry="19.048355"></ellipse>
                        <ellipse id="Oval-55" fill="#EA5B3A" cx="9.5953182" cy="12.749895" rx="4.62980096" ry="5.81491396"></ellipse>
                        <path d="M33.3241437,3.92699508 C38.5224928,7.39262164 41.8982975,12.9902995 41.8982975,19.3058424 C41.8982975,29.8259583 32.5313738,38.3541974 20.976688,38.3541974 C15.8182577,38.3541974 11.09586,36.6544741 7.44827586,33.8366142 C8.77405384,34.111498 10.1409878,34.2551843 11.5379159,34.2551843 C23.8562735,34.2551843 33.8422754,23.0821116 33.8422754,9.29942803 C33.8422754,7.4550451 33.6634512,5.65739374 33.3241437,3.92699508 Z" id="Combined-Shape" fill="#EA5B3A"></path>
                        <path d="M1.2,21.5022707 C1.2,21.5022707 19.5690295,29.7845406 41.2,21.491453" id="Path-27" stroke="#590700" stroke-width="1.2" stroke-linecap="round" stroke-linejoin="round"></path>
                        <rect id="Rectangle-7" fill="#F9F2F2" x="20.5862069" y="18.6557538" width="1.65517241" height="4.14894612"></rect>
                        <polygon id="Rectangle-7" fill="#F9F2F2" points="26.7931034 17.5147936 28.6551724 17.5147936 28.6551724 22.8046999 26.7931034 22.9084236"></polygon>
                        <polygon id="Rectangle-7" fill="#F9F2F2" points="14.1724138 18.7594775 15.7241379 18.7594775 15.7241379 22.9084236 14.1724138 22.7009763"></polygon>
                        <polygon id="Rectangle-7" fill="#F9F2F2" points="7.96551724 18.1371355 9 18.1371355 9 22.2860817 7.86206897 21.7674634"></polygon>
                        <polygon id="Rectangle-7" fill="#F9F2F2" points="2.37931034 16.788728 3.4137931 16.788728 3.4137931 20.4190559 2.48275862 19.796714"></polygon>
                        <polygon id="Triangle-1" fill="#FFFFFF" points="27.9310345 28.048458 29.6896552 31.5750622 26.1724138 31.5750622"></polygon>
                    </g>
                    <g id="Group-3" transform="translate(9.400000, 0.000000)">
                        <g id="Group-2">
                            <g id="Group">
                                <path d="M12.4019069,10.217632 C12.4019069,10.217632 6.60965181,7.22666485 6.67534983,2.71445498 C6.74104785,-1.79775489 4.10699041,6.47674623 8.73473008,10.3493303 C13.3624698,14.2219144 1.46282559,8.43117853 0.305890671,7.71064715 C-0.851044246,6.99011577 5.98007557,13.8046746 8.17449202,14.2255424 C10.3689085,14.6464103 10.5938702,14.4029395 10.1209888,15.6974289 C9.64810749,16.9919183 5.63511358,19.0359635 5.63511358,19.0359635 C5.63511358,19.0359635 5.8979047,19.7371685 6.70108201,19.3340081 C8.80520381,18.2778297 13.097344,15.7920992 14.661991,16.2235114 C16.8238891,16.8196005 21.9385882,19.8653513 21.9385882,19.8653513 C21.9385882,19.8653513 21.4426043,18.0368124 18.2710504,15.2250711 C15.0994965,12.4133298 30.4403452,13.4574836 30.4403452,13.4574836 C30.4403452,13.4574836 26.3580435,10.4117328 18.4121929,12.0425428 C10.4663422,13.6733527 12.4019069,10.217632 12.4019069,10.217632 Z" id="Path-8" fill="#9AB94A"></path>
                                <path d="M12.0130102,12.8610545 C11.9976872,12.7382476 12.0304978,12.6404286 12.0304978,12.6404286 C12.0304978,12.6404286 11.9496398,4.63160114 15.6415417,1.18759292 C19.3334435,-2.2564153 18.4268541,2.88589408 18.4268541,2.88589408 C18.4268541,2.88589408 15.1367919,6.81935288 15.3891668,12.7703331 C15.3893141,12.773807 15.3894641,12.7772619 15.3896167,12.7806977 C15.5498371,12.8734495 15.6415417,12.9811458 15.6415417,13.0960178 C15.6415417,13.4441986 14.7990375,13.7264548 13.759756,13.7264548 C12.7204744,13.7264548 11.8779702,13.4441986 11.8779702,13.0960178 C11.8779702,13.0129673 11.9259046,12.9336676 12.0130102,12.8610545 Z" id="Combined-Shape" fill="#AED155"></path>
                            </g>
                            <ellipse id="Oval-2" fill="#7CB03E" cx="17.974006" cy="1.97011554" rx="1.41133929" ry="1.97011554"></ellipse>
                        </g>
                    </g>
                </g>
            </g>
        </g>
    </g>
</svg>