<?xml version="1.0" encoding="utf-8"?>
<!-- Generator: Adobe Illustrator 19.2.0, SVG Export Plug-In . SVG Version: 6.00 Build 0)  -->
<svg version="1.1" id="Layer_1" xmlns="http://www.w3.org/2000/svg" xmlns:xlink="http://www.w3.org/1999/xlink" x="0px" y="0px"
	 viewBox="0 0 54.7 54.4" style="enable-background:new 0 0 54.7 54.4;" xml:space="preserve">
<style type="text/css">
	.st0{fill:#70CADB;}
	.st1{fill:#E01765;}
	.st2{fill:#E8A723;}
	.st3{fill:#3EB890;}
	.st4{fill:#CC2027;}
	.st5{fill:#361238;}
	.st6{fill:#65863A;}
	.st7{fill:#1A937D;}
</style>
<title>background</title>
<title>Layer 1</title>
<g>
	<g>
		<g>
			<g>
				<path class="st0" d="M4.7,28.8c-2,0-3.8-1.2-4.4-3.1c0-0.1,0-0.1-0.1-0.2c-0.7-2.4,0.7-5,3.1-5.8L42,6.7
					c0.5-0.1,0.9-0.2,1.4-0.2c2.1,0,3.9,1.2,4.5,3.2L48,9.9c0.7,2.5-1.1,4.8-3.2,5.5c0,0-0.4,0.1-38.5,13.2
					C5.7,28.7,5.2,28.8,4.7,28.8L4.7,28.8z"/>
			</g>
			<g>
				<path class="st1" d="M11.1,47.9c-2.1,0-3.8-1.2-4.4-3.1c0-0.1,0-0.1-0.1-0.2c-0.7-2.5,0.6-5,3.1-5.8l38.7-13.1
					c0.5-0.2,1-0.3,1.5-0.3c2.1,0,3.9,1.2,4.5,3.1l0.1,0.2c0.4,1.3,0.2,2.8-0.6,3.9c-0.6,0.9-2.3,1.6-2.3,1.6L12.8,47.6
					C12.2,47.8,11.7,47.8,11.1,47.9L11.1,47.9z"/>
			</g>
			<g>
				<path class="st2" d="M43.4,47.9c-2.1,0-3.9-1.3-4.6-3.2L25.9,6.3l-0.1-0.2c-0.7-2.4,0.6-5,3.1-5.8c0.5-0.2,1-0.2,1.5-0.3
					c0.7,0,1.5,0.2,2.2,0.5c1.1,0.6,2,1.5,2.4,2.7l12.9,38.4l0,0.1c0.7,2.5-0.6,5.1-3,5.9C44.4,47.8,43.9,47.9,43.4,47.9L43.4,47.9z
					"/>
			</g>
			<g>
				<path class="st3" d="M24.1,54.4c-2.1,0-3.9-1.3-4.6-3.2L6.7,12.8c0-0.1,0-0.1-0.1-0.2c-0.7-2.4,0.6-5,3.1-5.8
					c0.5-0.2,1-0.2,1.5-0.2c2.1,0,3.9,1.3,4.6,3.2l12.9,38.4c0,0.1,0,0.1,0.1,0.2c0.7,2.5-0.6,5-3.1,5.8
					C25.1,54.3,24.6,54.4,24.1,54.4L24.1,54.4L24.1,54.4z"/>
			</g>
			<path class="st4" d="M37,39.3l9-3.1l-2.9-8.8l-9,3.1L37,39.3z"/>
			<path class="st5" d="M17.8,45.8l9-3.1l-3-8.8l-9,3.1L17.8,45.8z"/>
			<path class="st6" d="M30.6,20.2l9-3.1l-2.9-8.7l-9,3L30.6,20.2z"/>
			<path class="st7" d="M11.4,26.8l9-3.1l-2.9-8.8l-9,3L11.4,26.8L11.4,26.8z"/>
		</g>
	</g>
</g>
</svg>
